<svg width="319" height="191" viewBox="0 0 319 191" fill="none" xmlns="http://www.w3.org/2000/svg">
<g clip-path="url(#clip0_35_310)">
<path d="M306.25 0H12.22C5.47108 0 0 5.47108 0 12.22V178.59C0 185.339 5.47108 190.81 12.22 190.81H306.25C312.999 190.81 318.47 185.339 318.47 178.59V12.22C318.47 5.47108 312.999 0 306.25 0Z" fill="#E41429"/>
<path d="M170.88 55.45C170.88 50.13 175.17 45.79 180.5 45.79C185.83 45.79 190.12 50.12 190.12 55.45C190.12 60.78 185.83 65.07 180.5 65.07C175.17 65.07 170.88 60.74 170.88 55.45Z" fill="white"/>
<path d="M120.84 79.02L120.8 105.2H108V71.42C116.62 69.4 119.76 69.16 125.33 69.2C131.73 69.28 137.52 72.59 137.52 72.59C141.56 70.65 147.76 68.38 155.31 69.41C163.56 70.61 167.69 76.71 167.69 84.11V105.21H154.85V82.91C154.85 80.73 152.66 76.64 144.61 79.32L144.2 79.44L144.24 105.21H131.44V82.91C131.44 80.73 128.84 76.35 120.83 79.03" fill="white"/>
<path d="M227.77 71.38V81.05C227.77 81.05 221.62 77.75 216.26 77.66C210.35 77.53 205.73 80.88 205.32 86.58C204.83 92.98 209.7 96.78 216.46 96.61C221.91 96.49 227.78 93.6 227.78 93.6V103.55L227.41 103.67C224.08 105.07 219.76 105.84 215.46 105.94H213.5C208.26 105.81 201.9 104.41 197.77 100.95C193.52 97.36 191.46 92.73 191.46 87.45C191.46 82.17 193.44 77.71 197.69 74.11C202.27 70.27 208.67 69.24 213.96 69.11C218.58 69.03 224.98 70.23 227.41 71.22L227.78 71.38H227.77Z" fill="white"/>
<path d="M234.46 80.68V71.47C234.46 71.47 244.2 69.2 252.01 69.24C262.37 69.28 269.6 73.41 269.6 83.19V103.84C262.29 105.61 251.72 106.44 244.75 105.61C237.98 104.83 230.71 101.2 230.96 93.77C231.29 83.7 244.66 81.3 255.27 83.07L256.02 83.19V81.09C256.02 78.24 253.83 77.46 249.29 77.54C246.15 77.58 242.85 78.25 240.34 78.86C238.6 79.32 235.67 80.27 234.48 80.68M250.35 97.81C253.53 97.81 256.01 97.02 256.01 97.02V90.7L255.63 90.54C250.35 88.6 244.28 90.01 243.99 93.43C243.7 96.56 246.84 97.81 250.35 97.81Z" fill="white"/>
<path d="M174.1 105.2H186.32V70.0699H174.1V105.2Z" fill="white"/>
<path d="M70.7699 80.68H83.1099L76.9199 62.02L70.7699 80.68ZM86.2999 90.42H67.5799L62.6699 105.2H48.8799L69.1099 48.88H84.7599L104.99 105.2H91.1599L86.2999 90.42Z" fill="white"/>
<path d="M101.98 136.55C101.81 135.91 100.47 135.54 99.3899 135.51C98.3099 135.48 95.7599 135.75 92.3999 137.22C92.4299 139.64 92.3999 141.86 92.3699 143.91C92.3399 147.94 92.1999 152.18 91.8299 156.08C91.2899 161.9 90.2199 166.37 88.3999 166.37C84.7699 166.37 80.3299 151.65 79.9299 148.79C79.5599 146.57 79.9299 143.01 82.1799 140.92C82.8499 140.21 83.4199 139.68 83.8599 139.31C85.4399 138.07 87.0899 137.02 88.7699 136.18C88.7699 135.51 88.7399 134.67 88.6999 133.69C88.5999 131.81 88.5699 130.5 88.5699 129.76C88.5699 129.02 88.5999 128.18 88.6999 127.24C88.9699 125.05 89.1699 124.01 89.6099 122.84C90.2799 121.03 91.4899 119.24 93.5799 119.38C97.3099 119.85 98.0499 122.47 98.3199 123.99C98.5199 125.74 97.4799 127.39 95.4599 128.16C94.5199 128.43 94.3499 127.56 94.3499 127.35C94.3499 127.22 94.3499 126.71 94.4499 126.21C94.5799 125.67 94.6499 125.44 94.6499 124.66C94.5199 124.09 94.3499 123.89 94.0799 123.75C92.7999 123.65 92.3699 127.99 92.3699 131.75V134.57C92.3699 134.57 93.0099 134.33 94.1199 133.9C96.3699 133.06 98.0899 132.66 99.9999 132.56C101.85 132.56 102.96 133.03 103.77 133.67C104.61 134.24 105.28 135.15 105.28 136.73C105.28 139.02 103.93 141.74 103.83 143.66C103.86 144.7 104 144.87 104.67 145.01C106.99 144.91 109.71 141.11 109.61 139.03C109.48 136.44 105.58 136.07 105.58 135.3C105.61 134.49 106.45 134.09 106.89 134.09C109.91 134.19 112.91 136.01 112.91 139.7C112.91 143.13 108.91 149.15 104.54 149.15C100.67 148.68 100.61 144.95 100.57 143.17C100.7 139.81 101.95 137.39 101.98 136.58V136.55ZM89.0299 161.97C89.5299 161.67 89.6999 158.68 89.7699 155.08C89.7999 153.87 89.8399 152.66 89.7999 151.42L89.6999 147.89C89.6699 146.71 89.5299 145.13 89.3599 143.12L88.9599 138.51C87.9199 138.78 86.5099 139.59 84.6899 140.9C84.1199 141.64 83.7499 142.31 83.5799 142.88C83.3099 144.06 83.1099 145.8 83.4799 148.19C83.9799 151.82 88.1199 162.78 89.0299 161.97Z" fill="white"/>
<path d="M129.11 139.98C127.3 139.91 126.45 138.53 126.32 137.19C126.02 135.58 125.92 134.57 124.84 134.43C124.27 134.33 123.6 135.37 123.06 136.21C120.87 140.61 121.28 144.38 121.65 148.31C121.75 148.95 120.27 149.15 119.4 148.98C116.21 148.31 115.94 139.4 115.94 138.59C115.94 137.92 115.84 136.1 116.78 135.77C117.18 135.6 118.33 135.63 119 136.31C119.67 135.64 120.88 133.65 122.87 133.39C123.91 133.25 124.82 133.39 126.03 133.93C128.28 134.97 129.09 134.74 129.73 136.18C130.44 137.96 130.1 139.98 129.13 139.98H129.11Z" fill="white"/>
<path d="M153.31 127.21C153.48 129.6 152.47 132.52 151.16 135.38C149.85 138.2 148.47 140.46 146.82 143.18C147.19 145.47 147.56 146.24 148.37 146.41C149.14 146.41 149.82 145.94 151.19 144.6C151.9 143.89 152.84 142.82 154.01 141.31C155.22 139.8 156.16 138.42 156.83 137.11C157.1 136.14 157.54 135.16 158.07 135.13C159.45 135.03 161.1 136.44 160.73 137.65L160.46 138.76C160.36 139.26 160.22 139.94 160.09 140.81C159.96 141.65 159.89 142.36 159.85 142.93C159.78 144.31 160.05 145.49 160.56 145.49C162.44 144.95 164.26 141.25 164.49 141.15C165.46 140.78 166 141.89 166 142.19C165.9 144.31 164.59 148.95 161.6 149.32C160.46 149.49 158.47 148.78 157.47 147.34C156.7 146.16 156.26 144.65 156.19 142.8C154.54 145.69 152.06 149.56 149.7 149.46C147.14 149.49 145.46 147.81 144.49 145.69C144.12 144.92 143.89 144.21 143.78 143.64C143.68 143.04 143.58 142.23 143.54 141.25C143.41 134.53 144.89 122.49 149.19 122.22C152.96 122.12 153.29 125.68 153.29 127.23L153.31 127.21ZM149.88 126.57C148.54 127.11 147.12 132.89 146.85 136.39C148.3 134.37 150.52 129.36 150.25 127.11C150.22 126.88 150.12 126.61 149.88 126.57ZM161.48 132.52C161.08 132.69 159.5 131.98 159.13 131.34C158.63 130.67 159.3 129.73 159.87 129.19C160.51 128.62 161.55 127.98 161.95 127.98C162.49 127.98 163.13 128.35 163.43 128.75C163.63 129.32 162.08 132.48 161.48 132.52Z" fill="white"/>
<path d="M173.25 149.26C169.82 149.26 166.73 138.94 166.73 137.86C166.73 136.35 168.65 135.91 169.12 135.91C170.3 136.01 170.6 137.25 171.07 139.64C171.37 141.29 171.67 141.99 171.98 142.77C172.28 143.48 172.65 144.08 172.95 144.11C175.47 142.5 177.22 136.61 177.49 135.24C177.59 134.67 177.32 133.73 178.03 133.56C180.59 133.19 181.22 135.81 181.22 137.16C181.22 139.65 177.66 149.26 173.25 149.26Z" fill="white"/>
<path d="M188.31 137.59C187.87 139.37 187.64 140.85 187.64 142.06C187.57 143.44 187.84 144.61 188.35 144.61C188.82 144.48 189.29 144.17 189.73 143.74C190.23 143.24 191.21 142.19 192.59 140.61C194.2 138.49 196.15 136.31 197.73 136.37C198.64 136.4 199.48 137.45 199.58 138.29C199.61 138.59 199.61 138.89 199.61 139.26V140.4C199.61 141.17 199.61 141.95 199.74 142.52C199.77 142.76 199.94 142.99 200.24 142.76C202.26 140.88 206.53 134.49 208.81 134.49C209.62 134.49 211.03 135.36 211.03 136.57C211.06 137.41 210.96 138.35 210.73 140.2C210.36 143.09 210.66 144.13 211.27 144.57C211.91 144.97 215.81 140 216.25 139.9C216.96 139.8 216.99 141.48 216.99 141.68C216.99 143.73 214.13 148.71 211.71 148.71C210.33 148.71 209.32 148 208.55 147.03C208.18 146.53 207.88 145.95 207.61 145.32C207.37 144.68 207.14 143.91 206.94 142.97C206.77 142 206.67 141.36 206.67 141.05C206.13 140.51 202.3 147.61 199.91 147.07C198.97 146.83 198.23 146.4 197.69 145.76C196.65 144.41 196.21 143.17 195.67 140.58C195.33 140.92 194.9 141.59 194.33 142.63C193.79 143.67 193.29 144.58 192.82 145.42C191.91 147.03 190.87 148.28 189.39 148.45C188.25 148.62 186.26 147.91 185.26 146.47C184.49 145.29 184.05 143.78 183.98 141.93C183.95 140.58 184.01 139.31 184.25 138.13C184.75 135.71 185.12 135.1 185.66 135.07C187.04 134.97 188.68 136.38 188.32 137.59H188.31ZM189.32 131.78C188.92 131.95 187.34 131.24 186.97 130.6C186.03 129.29 189.22 126.97 190.03 126.97C190.57 126.97 191.21 127.34 191.51 127.74C191.78 128.21 190.06 131.77 189.32 131.77V131.78Z" fill="white"/>
<path d="M235.64 139.65C235.4 139.72 235.03 139.92 234.5 140.25C233.42 140.89 231.81 142.03 230.9 143.11C230.5 150.67 226.43 160.62 220.68 160.62C218.97 160.62 217.25 158.5 217.25 156.99C217.25 154.43 219.64 150.97 222.06 148.28C223.51 146.67 225.12 145.05 226.9 143.44C227 142.94 227.07 141.86 226.83 141.46C224.85 143.98 221.65 147.71 219.17 147.71C217.22 147.71 214.53 146.6 214.53 143.91C214.53 139.24 222.3 133.76 226.06 133.89C227.3 133.89 228.51 134.26 228.35 136.31C228.85 136.41 229.26 136.58 229.8 137.22C230.4 137.89 230.74 139.98 230.74 140.48C232.02 139.51 232.96 138.83 233.6 138.4C234.84 137.56 236.63 136.48 237.94 136.05C238.48 136.22 238.71 136.39 238.68 136.62C238.58 137.06 238.38 137.66 238.11 138.03L237.77 138.5C237.53 138.77 237.23 138.97 236.9 139.1L235.66 139.64L235.64 139.65ZM224.68 137.43C224.51 137.33 224.41 137.19 224.31 137.03C222.33 137.03 217.72 143.08 217.99 144.83C218.02 145.2 218.13 145.1 218.26 145.2C220.75 144.7 224.18 140.36 225.92 137.64C225.35 137.81 224.95 137.67 224.68 137.44V137.43ZM220.58 156.35C220.58 156.62 220.51 156.79 220.92 156.89C222.94 156.59 226.23 149.86 226.67 146.37C225.66 146.87 220.62 153.73 220.59 156.35H220.58Z" fill="white"/>
</g>
<defs>
<clipPath id="clip0_35_310">
<rect width="318.47" height="190.81" fill="white"/>
</clipPath>
</defs>
</svg>
